<svg xmlns="http://www.w3.org/2000/svg" width="250" height="250" fill="none" viewBox="0 0 250 250">
<!-- SVG created with Arrow, by QuiverAI (https://quiver.ai) -->
  <path d="m7.11 174.9c4.71 1.26 10.11-2.19 14.05-6.01l-0.19 2.02c5.06-1.99 10.75-11.89 14.31-15.83 8.44-7.29 17.84-11.2 30.74-15.42 0 11.06 3.9 33.4 15.1 37.02 2.1 0.55 2.59 2.24 5.9 2.24 1.96 0 2.9-1.07 2.37-2.21s-2.48-3-4.28-6.55c-5.42-9.48-6.24-24.07-6.5-36.04 3.67-1.87 8.58-5.14 10.61-9.01s5.6-7.96 5.36-11.28c-0.24-1.35-0.25-1.46-0.6-1.3-1.75 3.18-6.24 5.45-12.89 8.68 0.72-10.28 1.1-24.17 1.23-31 0.16-8.3-2.5-16.6-12.24-16.6-9.75 0-16.29 12.65-21.12 21.2-11.04 20.8-21.82 45.12-35.88 69.33-2.31 4.04-4.72 8.84-5.97 9.67s-1.19 0.77 0 1.09zm40.07-42.57c5.63-11.97 11.55-25.91 18.66-35.61 0.57-0.76 0.07 10.2-0.46 28.71-5.54 2.18-12.29 4.43-18.2 6.9z" fill="url(#paint0_linear_125_2994)"/>
  <path d="m13.32 164.2c10.1-13.44 19.13-33.95 31.75-55.07-9.06 17.67-17.86 38.49-30.48 58.66-2.68 4.36-5.61 6.61-7.57 7.23l6.3-10.82z" fill="url(#paint1_linear_125_2994)"/>
  <path d="m52.85 88.72c3.26-3.62 5.57-5.55 8.42-5.55 4.44 0 4.85 3.94 4.44 11.84-5.57 7.86-11.3 18.62-18.53 37.32l0.33-0.15c5.35-2.63 11.95-4.91 17.87-6.75l-0.12 0.75c-7.35 2.73-16.95 6.63-21.19 8.73l8.78-46.19z" fill="url(#paint2_linear_125_2994)"/>
  <path d="m76.92 123.2 0.99-18.1 0.28 17.45-1.27 0.65z" fill="url(#paint3_linear_125_2994)"/>
  <path d="m80.11 133.8 2.85 23.09-1.29-2.31-1.56-20.78z" fill="url(#paint4_linear_125_2994)"/>
  <path d="m173.6 69.57c-6.67 7.14-20.57 4.41-45.33 5.76-18.14 0.99-29.23 8.98-31.29 21.26v3.62l0.88 0.45c6.96-6.62 16.3-8.65 22.81-8.95l-1.51 0.6c3.94-0.7 8.08-1.49 10.07-1.59 19.14-0.99 32.13-2.48 37.57-7.61 3.97-4.32 7.06-7.34 7.06-12.9 0-0.74-0.1-0.74-0.26-0.64z" fill="url(#paint5_linear_125_2994)"/>
  <path d="m119.4 79.08c10.43-1.92 27.88-1.09 41.8-6.86-7.39 4.39-24.39 5.77-41.8 6.86z" fill="url(#paint6_linear_125_2994)"/>
  <path d="m103.7 118.8c3.53-13.74 5.39-21.71 17.96-26.81l7.45-0.99c-5.51 6.92-7.85 14.75-9.72 23.5 7.6 0.2 17.37-0.54 20.73-0.89 1.49-0.15 1.05 0.69-0.15 0.99-3.7 0.99-11.87 2.43-18.88 2.68 7.01 1.14 22.8-0.89 26-2.88 2.5-1.29 2.5-2.28 3.04-2.08s0.67 0.79 0.24 2.48c-2.13 6.42-7.67 12.84-18.1 13.83-5.98 0.6-9.58 0.25-16.58 1l-10.94 38.48c0.31-9.82 2.84-19.82 4.32-26.44l-8.98 38.12c-2.03-0.4-2.2-4.19-3.45-4.79-5.75-11.06-1.27-27.01 2.56-42.16-3.13 0.5-4.11 2.93-6.07 2.93s-0.2-6.07 2.13-10.12c1.83-3.36 4.83-5.46 8.44-6.85z" fill="url(#paint7_linear_125_2994)"/>
  <path d="m242.9 73.91c-6.21-0.7-8.85 0.88-16.1 12.55l1.7-5.63c-4.07 2.93-6.58 5.43-9.52 12.86-6.54 15.05-9.21 36.25-15.75 54.92-6.54-11.67-3.35-52.7-13.78-67.78-3.36-3.72-6.45-4.12-10.25-3.32-6.54 1.54-10.98 12.61-14.07 22.7-5.03 16.3-8.43 38.6-16.13 63.29 5.67-10.59 10.08-28.69 14.91-48.18-4.93 21.8-9.93 54.5-18.91 60.33 7.87 0.79 12.11-5.24 16.71-13.64l-1.61 6.82c11.5-12.66 12.01-40.72 20.79-63.72 5.47 11.06 3.16 42.08 11.51 60.11 3.36 6.42 7.8 7.91 11.4 7.62 5.06-0.4 8.15-4.01 12.32-15.08 7-16.55 11-45.72 22.17-70.95-6.18 7.23-13.69 31.14-16.89 49.18 3.97-21.57 10.51-49.08 22.21-61.69 0.69-0.59 0.21-0.49-0.71-0.39z" fill="url(#paint8_linear_125_2994)"/>
  <path d="m165.4 96.61c2.68-6.19 4.5-8.47 7.6-7.89 5.5 1.06 8.21 8.73 9.7 18.69l-1.81-2.3c-5.67 12.66-9.02 38.8-17.74 57l-1.54-0.7 1.09-3-2.6 3.6c4.83-13 7.68-31.38 4.32-34.8l0.98-12.19-2.7 6.29 2.7-24.7z" fill="url(#paint9_linear_125_2994)"/>
  <path d="m202.7 148c2.93 9.8 4.42 13.15 9.48 13.15 3.5 0 4.95-4.44 6.24-6.95-3.19 10.1-6.45 13.13-10.69 13.13-5.57 0-8.01-9.58-8.99-15.22l3.96-4.11z" fill="url(#paint10_linear_125_2994)"/>
  <defs>
    <linearGradient id="paint0_linear_125_2994" x1="50.07" x2="50.07" y1="73.61" y2="178.9" gradientUnits="userSpaceOnUse">
      <stop stop-color="#F59E1B" offset="0"/>
      <stop stop-color="#D46C0A" offset="1"/>
    </linearGradient>
    <linearGradient id="paint1_linear_125_2994" x1="26.04" x2="26.04" y1="109.1" y2="175.2" gradientUnits="userSpaceOnUse">
      <stop stop-color="#C55A07" offset="0"/>
      <stop stop-color="#C55A07" stop-opacity=".12" offset="1"/>
    </linearGradient>
    <linearGradient id="paint2_linear_125_2994" x1="54.74" x2="54.74" y1="83.17" y2="134.9" gradientUnits="userSpaceOnUse">
      <stop stop-color="#C55A07" offset="0"/>
      <stop stop-color="#C55A07" stop-opacity=".12" offset="1"/>
    </linearGradient>
    <linearGradient id="paint3_linear_125_2994" x1="77.55" x2="77.55" y1="105.1" y2="123.2" gradientUnits="userSpaceOnUse">
      <stop stop-color="#F59E1B" offset="0"/>
      <stop stop-color="#F59E1B" stop-opacity=".25" offset="1"/>
    </linearGradient>
    <linearGradient id="paint4_linear_125_2994" x1="81.53" x2="81.53" y1="133.8" y2="156.9" gradientUnits="userSpaceOnUse">
      <stop stop-color="#F59E1B" offset="0"/>
      <stop stop-color="#F59E1B" stop-opacity=".25" offset="1"/>
    </linearGradient>
    <linearGradient id="paint5_linear_125_2994" x1="135.4" x2="135.4" y1="69.5" y2="100.7" gradientUnits="userSpaceOnUse">
      <stop stop-color="#D46C0A" offset="0"/>
      <stop stop-color="#F59E1B" offset="1"/>
    </linearGradient>
    <linearGradient id="paint6_linear_125_2994" x1="140.3" x2="140.3" y1="72.22" y2="79.43" gradientUnits="userSpaceOnUse">
      <stop stop-color="#F59E1B" offset="0"/>
      <stop stop-color="#F59E1B" stop-opacity=".25" offset="1"/>
    </linearGradient>
    <linearGradient id="paint7_linear_125_2994" x1="121.7" x2="121.7" y1="90.72" y2="179.8" gradientUnits="userSpaceOnUse">
      <stop stop-color="#C55A07" offset="0"/>
      <stop stop-color="#C55A07" stop-opacity=".85" offset="1"/>
    </linearGradient>
    <linearGradient id="paint8_linear_125_2994" x1="194.3" x2="194.3" y1="73.61" y2="173.1" gradientUnits="userSpaceOnUse">
      <stop stop-color="#F59E1B" offset="0"/>
      <stop stop-color="#F09A1B" offset="1"/>
    </linearGradient>
    <linearGradient id="paint9_linear_125_2994" x1="172.7" x2="172.7" y1="88.58" y2="162.1" gradientUnits="userSpaceOnUse">
      <stop stop-color="#C55A07" offset="0"/>
      <stop stop-color="#C55A07" stop-opacity=".12" offset="1"/>
    </linearGradient>
    <linearGradient id="paint10_linear_125_2994" x1="208.6" x2="208.6" y1="148" y2="167.3" gradientUnits="userSpaceOnUse">
      <stop stop-color="#C55A07" offset="0"/>
      <stop stop-color="#C55A07" stop-opacity=".12" offset="1"/>
    </linearGradient>
  </defs>
</svg>